<?xml version="1.0" encoding="utf-8"?>
<svg version="1.1" xmlns="http://www.w3.org/2000/svg" width="100px" height="100px" xmlns:bx="https://boxy-svg.com">
  <defs>
    <bx:guide x="100" y="100" angle="0"/>
    <bx:guide x="2614.59326660512" y="472.48492398289955" angle="0"/>
  </defs>
  <path d="M 55.734 17.16 C 56.392 17.62 57.031 18.111 57.654 18.628 C 57.681 18.649 57.707 18.673 57.735 18.695 C 58.605 19.421 59.454 20.183 60.257 21.003 C 60.331 21.08 60.407 21.153 60.483 21.228 C 60.977 21.715 61.445 22.238 61.909 22.762 C 62.012 22.877 62.116 22.993 62.219 23.109 C 62.285 23.185 62.352 23.259 62.418 23.334 C 62.449 23.368 62.479 23.403 62.51 23.438 C 62.67 23.618 62.823 23.801 62.971 23.995 C 63.057 24.107 63.146 24.214 63.235 24.321 C 63.399 24.521 63.554 24.727 63.705 24.937 C 63.809 25.081 63.916 25.219 64.022 25.358 C 64.23 25.629 64.428 25.907 64.622 26.19 C 64.684 26.279 64.747 26.37 64.81 26.458 C 65.092 26.861 65.362 27.271 65.622 27.694 C 65.678 27.784 65.735 27.874 65.792 27.963 C 67.804 31.127 69.329 34.668 71.629 56.809 C 71.079 60.514 70.05 64.088 67.619 69.563 C 67.559 69.679 67.5 69.796 67.442 69.914 C 66.824 71.148 66.123 72.343 65.371 73.48 C 65.342 73.524 65.342 73.524 65.312 73.569 C 64.667 74.55 63.987 75.504 63.259 76.407 C 63.19 76.494 63.123 76.581 63.056 76.667 C 62.621 77.226 62.157 77.748 61.692 78.273 C 61.619 78.355 61.546 78.437 61.473 78.518 C 61.384 78.618 61.295 78.718 61.207 78.817 C 61.159 78.872 61.159 78.872 61.109 78.928 C 60.944 79.114 60.776 79.292 60.599 79.464 C 60.5 79.558 60.406 79.658 60.309 79.758 C 60.134 79.944 59.95 80.118 59.761 80.289 C 59.635 80.405 59.512 80.524 59.389 80.644 C 59.148 80.878 58.901 81.1 58.649 81.319 C 58.57 81.389 58.488 81.461 58.407 81.532 C 58.084 81.819 57.758 82.098 57.421 82.362 C 57.339 82.427 57.259 82.49 57.178 82.556 C 55.734 83.708 54.219 84.723 52.642 85.626 C 52.551 85.678 52.461 85.731 52.369 85.783 C 52.234 85.863 52.097 85.941 51.96 86.019 C 51.918 86.042 51.877 86.067 51.833 86.092 C 51.795 86.114 51.756 86.136 51.715 86.158 C 51.682 86.179 51.648 86.198 51.614 86.218 C 51.579 86.234 51.545 86.247 51.512 86.258 C 51.55 86.239 51.598 86.213 51.666 86.178 C 51.639 86.148 51.614 86.12 51.588 86.092 C 51.64 86.032 51.691 85.976 51.742 85.919 C 51.718 85.904 51.693 85.892 51.669 85.879 C 51.982 85.561 52.329 85.306 52.682 85.043 C 52.895 84.88 53.106 84.708 53.316 84.536 C 53.343 84.514 53.372 84.492 53.399 84.468 C 53.78 84.158 54.152 83.841 54.515 83.504 C 54.651 83.378 54.791 83.254 54.931 83.134 C 55.327 82.787 55.701 82.41 56.073 82.03 C 56.149 81.954 56.225 81.878 56.303 81.803 C 56.716 81.397 57.107 80.969 57.493 80.533 C 57.573 80.444 57.652 80.356 57.732 80.267 C 57.781 80.21 57.833 80.152 57.884 80.095 C 57.907 80.068 57.929 80.042 57.954 80.016 C 58.097 79.854 58.232 79.687 58.364 79.515 C 58.438 79.42 58.514 79.326 58.589 79.232 C 58.753 79.028 58.909 78.817 59.063 78.604 C 59.119 78.524 59.175 78.446 59.234 78.368 C 59.425 78.106 59.613 77.842 59.791 77.57 C 59.934 77.356 60.086 77.16 60.247 76.966 C 60.383 76.798 60.509 76.622 60.635 76.445 C 60.695 76.362 60.755 76.281 60.815 76.199 C 61.059 75.871 61.297 75.541 61.522 75.196 C 61.577 75.108 61.635 75.024 61.692 74.938 C 62.2 74.168 62.687 73.383 63.143 72.572 C 63.164 72.538 63.184 72.502 63.205 72.465 C 63.718 71.552 64.192 70.619 64.63 69.659 C 64.675 69.561 64.721 69.463 64.767 69.368 C 65.463 67.93 66.017 66.385 66.495 64.84 C 66.523 64.752 66.551 64.665 66.578 64.579 C 67.07 63 67.456 61.384 67.751 59.746 C 67.76 59.698 67.76 59.698 67.769 59.648 C 68.067 58 68.263 56.328 68.36 54.65 C 68.365 54.564 68.371 54.478 68.376 54.39 C 68.42 53.659 68.413 52.926 68.413 52.193 C 68.413 52.156 68.413 52.121 68.413 52.084 C 68.414 50.904 68.392 49.734 68.289 48.559 C 68.285 48.522 68.281 48.484 68.279 48.447 C 67.973 44.852 67.221 41.268 65.217 35.904 C 65.199 35.86 65.181 35.816 65.162 35.77 C 64.754 34.796 64.315 33.848 63.825 32.922 C 63.759 32.795 63.694 32.668 63.627 32.54 C 63.39 32.081 63.142 31.635 62.875 31.197 C 62.827 31.115 62.779 31.033 62.731 30.951 C 62.335 30.285 61.919 29.64 61.484 29.005 C 61.426 28.922 61.368 28.837 61.311 28.751 C 60.797 27.99 60.243 27.262 59.665 26.559 C 59.589 26.465 59.514 26.367 59.439 26.27 C 59.313 26.106 59.175 25.954 59.038 25.801 C 58.936 25.688 58.837 25.569 58.743 25.447 C 58.529 25.165 58.292 24.912 58.041 24.67 C 57.947 24.574 57.858 24.473 57.769 24.373 C 57.633 24.218 57.497 24.073 57.351 23.934 C 57.255 23.839 57.161 23.741 57.066 23.644 C 56.894 23.467 56.717 23.3 56.535 23.134 C 56.439 23.046 56.345 22.957 56.251 22.865 C 55.96 22.583 55.653 22.32 55.346 22.059 C 55.206 21.939 55.067 21.817 54.927 21.695 C 54.971 21.425 55.027 21.161 55.088 20.896 C 55.36 19.722 55.596 18.545 55.683 17.334 C 55.696 17.204 55.696 17.204 55.734 17.16 Z M 51.281 86.308 C 51.291 86.297 51.3 86.286 51.31 86.276 C 51.334 86.284 51.353 86.29 51.372 86.292 C 51.342 86.298 51.312 86.302 51.281 86.308 Z M 51.31 86.276 C 51.301 86.272 51.291 86.269 51.281 86.264 C 51.301 86.243 51.323 86.223 51.345 86.202 C 51.373 86.174 51.401 86.147 51.43 86.119 C 51.457 86.092 51.485 86.064 51.513 86.036 C 51.565 85.985 51.616 85.931 51.666 85.876 C 51.666 85.876 51.668 85.877 51.669 85.879 C 51.633 85.914 51.597 85.952 51.563 85.99 C 51.531 86.025 51.503 86.058 51.472 86.092 C 51.419 86.153 51.364 86.214 51.31 86.276 Z M 19.723 15 C 19.881 15.148 20.03 15.301 20.172 15.468 C 20.632 16.008 21.168 16.426 21.721 16.833 C 21.759 16.862 21.759 16.862 21.8 16.89 C 21.846 16.925 21.896 16.96 21.943 16.994 C 21.998 17.033 22.051 17.074 22.103 17.117 C 22.103 17.145 22.103 17.174 22.103 17.204 C 22.066 17.221 22.066 17.221 22.028 17.24 C 20.249 18.111 18.546 19.119 16.92 20.313 C 16.882 20.341 16.844 20.369 16.804 20.398 C 16.344 20.736 15.892 21.081 15.456 21.46 C 15.356 21.547 15.252 21.633 15.15 21.718 C 14.255 22.467 13.392 23.265 12.577 24.123 C 12.523 24.182 12.466 24.239 12.411 24.295 C 12.086 24.626 11.776 24.971 11.466 25.319 C 11.379 25.418 11.292 25.516 11.204 25.613 C 11.147 25.678 11.091 25.741 11.034 25.805 C 11.009 25.834 10.982 25.863 10.957 25.893 C 10.808 26.061 10.666 26.233 10.528 26.414 C 10.442 26.523 10.353 26.632 10.263 26.739 C 10.1 26.939 9.946 27.143 9.796 27.356 C 9.707 27.475 9.618 27.592 9.526 27.709 C 9.257 28.051 9.01 28.407 8.766 28.771 C 8.704 28.864 8.641 28.955 8.578 29.048 C 6.57 31.968 4.944 35.281 3.47 39.835 C 3.445 39.92 3.419 40.004 3.394 40.088 C 2.438 43.262 1.9 46.59 5.352 69.44 C 5.621 70.044 5.922 70.627 6.228 71.209 C 6.302 71.351 6.372 71.494 6.444 71.636 C 7.164 73.06 8.022 74.43 8.94 75.702 C 9.032 75.83 9.123 75.962 9.215 76.094 C 9.38 76.334 9.551 76.565 9.735 76.788 C 9.818 76.893 9.896 77 9.974 77.11 C 10.178 77.395 10.402 77.657 10.626 77.922 C 10.714 78.025 10.802 78.13 10.886 78.237 C 11.152 78.566 11.428 78.882 11.708 79.198 C 11.729 79.22 11.748 79.242 11.768 79.266 C 11.973 79.496 12.176 79.723 12.397 79.934 C 12.516 80.051 12.631 80.175 12.747 80.299 C 12.948 80.511 13.152 80.712 13.367 80.906 C 13.467 80.998 13.563 81.094 13.658 81.193 C 13.844 81.382 14.036 81.557 14.232 81.73 C 14.271 81.764 14.31 81.798 14.349 81.834 C 14.466 81.942 14.573 82.041 14.672 82.13 C 14.66 82.122 14.647 82.113 14.636 82.103 C 14.603 82.079 14.572 82.056 14.54 82.031 C 14.572 82.056 14.603 82.079 14.636 82.103 C 14.647 82.113 14.66 82.123 14.674 82.133 C 14.673 82.131 14.673 82.131 14.672 82.13 C 14.833 82.255 14.992 82.384 15.148 82.515 C 15.183 82.543 15.216 82.571 15.252 82.599 C 15.283 82.626 15.314 82.652 15.348 82.678 C 15.377 82.702 15.407 82.727 15.436 82.752 C 15.468 82.779 15.468 82.779 15.499 82.81 C 15.499 82.818 15.499 82.826 15.499 82.834 C 15.391 82.74 15.268 82.63 15.12 82.502 C 14.972 82.375 14.825 82.251 14.674 82.133 C 15.018 82.45 15.258 82.666 15.477 82.85 C 15.374 82.844 15.291 82.82 15.215 82.781 C 15.057 82.657 14.899 82.533 14.743 82.407 C 14.658 82.33 14.578 82.251 14.502 82.162 C 14.569 82.242 14.639 82.314 14.714 82.383 C 14.695 82.367 14.674 82.351 14.654 82.335 C 14.605 82.294 14.605 82.294 14.554 82.252 C 14.045 81.836 13.55 81.408 13.066 80.959 C 13 80.898 12.932 80.836 12.866 80.775 C 12.434 80.382 12.017 79.97 11.609 79.546 C 11.521 79.454 11.432 79.366 11.34 79.279 C 11.222 79.163 11.112 79.041 11.003 78.915 C 10.936 78.842 10.868 78.773 10.796 78.706 C 10.602 78.516 10.419 78.311 10.238 78.105 C 10.18 78.04 10.122 77.974 10.063 77.908 C 9.878 77.701 9.698 77.492 9.528 77.268 C 9.468 77.188 9.403 77.116 9.337 77.044 C 9.222 76.915 9.114 76.781 9.008 76.643 C 8.923 76.533 8.836 76.425 8.748 76.318 C 8.591 76.124 8.441 75.924 8.295 75.72 C 8.215 75.611 8.134 75.502 8.052 75.393 C 7.814 75.08 7.584 74.758 7.361 74.431 C 7.338 74.397 7.314 74.364 7.29 74.328 C 5.234 71.339 3.53 67.994 1.063 59.962 C 1.058 59.93 1.051 59.901 1.043 59.869 C 0.564 57.751 0.251 55.576 0.11 53.397 C 0.104 53.31 0.098 53.224 0.093 53.136 C -0.036 51.264 -0.03 49.351 0.104 47.48 C 0.108 47.428 0.108 47.428 0.112 47.374 C 0.275 45.045 0.614 42.743 1.14 40.482 C 1.15 40.439 1.15 40.439 1.162 40.395 C 1.944 37.026 3.141 33.751 4.724 30.757 C 4.782 30.645 4.841 30.532 4.897 30.418 C 5.174 29.874 5.478 29.353 5.786 28.832 C 5.807 28.797 5.828 28.761 5.85 28.725 C 6.798 27.123 7.846 25.594 9.003 24.175 C 9.079 24.079 9.155 23.984 9.23 23.887 C 9.284 23.816 9.34 23.749 9.396 23.682 C 9.422 23.697 9.446 23.711 9.471 23.725 C 10.176 22.931 10.861 22.161 11.544 21.391 C 11.522 21.38 11.5 21.367 11.478 21.355 C 11.498 21.333 11.517 21.311 11.538 21.29 C 11.746 21.069 11.955 20.859 12.178 20.659 C 12.275 20.571 12.368 20.477 12.459 20.383 C 12.628 20.211 12.803 20.053 12.982 19.895 C 13.127 19.77 13.272 19.638 13.415 19.505 C 13.752 19.194 14.098 18.902 14.451 18.615 C 14.532 18.547 14.614 18.479 14.696 18.412 C 16.263 17.105 17.974 15.969 19.723 15 Z M 9.396 23.682 C 9.396 23.682 9.396 23.682 9.394 23.682 C 9.524 23.524 9.655 23.367 9.788 23.211 C 9.771 23.233 9.752 23.255 9.736 23.276 C 9.678 23.355 9.619 23.43 9.556 23.502 C 9.501 23.562 9.448 23.622 9.396 23.682 Z M 10.341 22.569 C 10.41 22.491 10.479 22.413 10.549 22.334 C 10.566 22.316 10.582 22.297 10.598 22.277 C 10.582 22.297 10.566 22.316 10.549 22.334 C 10.528 22.358 10.508 22.38 10.49 22.402 C 10.253 22.669 10.018 22.937 9.788 23.211 C 9.964 22.989 10.152 22.78 10.341 22.569 Z M 11.169 21.676 C 11.183 21.661 11.198 21.648 11.212 21.633 C 11.199 21.646 11.187 21.658 11.174 21.672 C 11.108 21.733 11.046 21.795 10.983 21.86 C 11.044 21.798 11.106 21.735 11.169 21.676 Z M 16.875 83.884 C 16.872 83.882 16.87 83.88 16.868 83.879 C 16.861 83.873 16.854 83.866 16.846 83.86 C 16.917 83.91 16.994 83.963 17.074 84.019 C 17.002 83.97 16.936 83.926 16.875 83.884 Z M 17.074 84.019 C 17.054 84.062 17.054 84.062 17.034 84.104 C 16.603 83.814 16.603 83.814 16.528 83.763 C 16.468 83.723 16.407 83.682 16.344 83.644 C 16.319 83.626 16.293 83.607 16.268 83.587 C 16.268 83.559 16.268 83.53 16.268 83.5 C 16.301 83.508 16.333 83.516 16.363 83.527 C 16.5 83.626 16.662 83.738 16.875 83.884 C 16.896 83.898 16.916 83.914 16.937 83.932 C 16.997 83.979 16.997 83.979 17.074 84.019 Z M 16.14 83.365 C 16.212 83.417 16.292 83.474 16.377 83.533 C 16.372 83.532 16.366 83.53 16.363 83.527 C 16.282 83.471 16.21 83.417 16.14 83.365 Z M 35.963 31.974 C 36.025 31.987 36.089 32.003 36.155 32.017 C 36.198 32.197 36.241 32.378 36.284 32.56 C 36.291 32.588 36.298 32.616 36.305 32.646 C 36.391 33.006 36.475 33.367 36.555 33.73 C 36.989 35.671 37.452 37.416 38.727 38.884 C 38.751 38.912 38.775 38.94 38.799 38.968 C 38.879 39.061 38.961 39.151 39.041 39.244 C 39.065 39.272 39.091 39.3 39.117 39.329 C 39.265 39.497 39.42 39.656 39.578 39.81 C 39.665 39.894 39.75 39.981 39.833 40.066 C 40.035 40.27 40.243 40.464 40.455 40.654 C 40.503 40.7 40.552 40.745 40.599 40.79 C 41.153 41.298 41.722 41.78 42.297 42.254 C 42.326 42.276 42.354 42.299 42.383 42.324 C 43.063 42.881 43.754 43.419 44.455 43.943 C 44.827 44.222 45.196 44.508 45.561 44.802 C 45.583 44.82 45.605 44.837 45.63 44.857 C 47.092 46.042 47.527 47.347 47.847 49.285 C 47.851 49.314 47.857 49.346 47.862 49.376 C 48.006 50.262 47.945 51.06 47.749 51.928 C 47.725 52.034 47.703 52.14 47.681 52.246 C 47.667 52.306 47.653 52.368 47.64 52.428 C 47.604 52.597 47.579 52.749 47.595 52.922 C 47.68 53.044 47.763 53.081 47.894 53.124 C 47.931 53.136 47.969 53.149 48.007 53.164 C 48.067 53.183 48.067 53.183 48.131 53.204 C 48.505 53.336 48.88 53.474 49.251 53.62 C 49.296 53.637 49.342 53.656 49.387 53.674 C 49.625 53.768 49.817 53.864 50.014 54.045 C 50.001 54.102 49.99 54.158 49.976 54.217 C 49.762 54.19 49.572 54.13 49.369 54.055 C 48.901 53.89 48.423 53.79 47.941 53.698 C 47.897 53.69 47.897 53.69 47.851 53.681 C 47.15 53.548 46.391 53.558 45.687 53.664 C 45.657 53.668 45.627 53.673 45.597 53.676 C 45.04 53.774 44.499 53.973 43.971 54.193 C 43.81 54.261 43.65 54.326 43.487 54.391 C 43.437 54.412 43.437 54.412 43.385 54.434 C 42.976 54.6 42.565 54.756 42.153 54.914 C 42.075 54.943 41.999 54.972 41.921 55.002 C 41.607 55.122 41.292 55.242 40.977 55.36 C 39.035 56.094 37.156 57.006 35.464 58.32 C 35.438 58.34 35.413 58.36 35.387 58.38 C 34.771 58.855 34.183 59.366 33.621 59.919 C 33.588 59.951 33.554 59.984 33.519 60.018 C 33.134 60.4 32.787 60.805 32.469 61.256 C 32.433 61.306 32.396 61.354 32.36 61.404 C 32.095 61.761 31.931 62.098 31.809 62.546 C 31.712 62.896 31.628 63.187 31.344 63.394 C 31.15 63.436 30.968 63.406 30.787 63.325 C 30.653 63.196 30.564 63.044 30.536 62.847 C 30.533 62.744 30.534 62.64 30.536 62.536 C 30.537 62.479 30.537 62.479 30.538 62.42 C 30.544 62.196 30.555 61.973 30.568 61.748 C 30.693 59.71 30.468 57.68 30.105 55.686 C 29.904 54.59 29.782 53.504 29.699 52.39 C 29.695 52.322 29.695 52.322 29.69 52.255 C 29.624 51.364 29.581 50.48 29.58 49.586 C 29.58 49.442 29.578 49.298 29.578 49.154 C 29.574 48.456 29.628 47.8 29.802 47.129 C 29.812 47.092 29.822 47.054 29.832 47.017 C 30.033 46.266 30.298 45.424 30.78 44.845 C 30.842 44.874 30.906 44.902 30.972 44.93 C 30.931 45.278 30.883 45.621 30.824 45.964 C 30.216 49.544 30.602 52.786 31.298 56.302 C 31.522 57.43 31.705 58.532 31.78 59.686 C 31.782 59.72 31.783 59.754 31.787 59.788 C 31.79 59.852 31.795 59.915 31.797 59.979 C 31.808 60.135 31.824 60.285 31.855 60.436 C 32.018 60.258 32.172 60.07 32.322 59.879 C 32.346 59.892 32.368 59.904 32.391 59.919 C 32.72 59.55 33.035 59.194 33.352 58.839 C 33.325 58.824 33.301 58.81 33.275 58.796 C 33.013 59.062 32.761 59.333 32.521 59.621 C 32.524 59.616 32.528 59.613 32.53 59.608 C 33.495 58.367 34.832 57.508 36.077 56.678 C 36.117 56.652 36.156 56.627 36.195 56.6 C 38.509 55.059 40.955 53.884 43.603 53.31 C 43.632 53.304 43.662 53.297 43.691 53.291 C 44.367 53.144 45.045 53.064 45.729 52.988 C 45.869 52.974 46.008 52.958 46.147 52.942 C 46.19 52.937 46.232 52.932 46.276 52.927 C 46.316 52.924 46.355 52.919 46.396 52.914 C 46.429 52.91 46.464 52.906 46.5 52.903 C 46.615 52.874 46.693 52.826 46.789 52.749 C 46.861 52.622 46.861 52.622 46.919 52.473 C 46.93 52.446 46.941 52.42 46.953 52.392 C 46.976 52.334 46.999 52.277 47.024 52.218 C 47.057 52.132 47.093 52.046 47.128 51.961 C 47.451 51.17 47.702 50.437 47.454 49.569 C 47.234 48.932 46.859 48.403 46.443 47.912 C 46.413 47.874 46.413 47.874 46.381 47.837 C 46.073 47.477 45.759 47.151 45.404 46.852 C 45.323 46.782 45.241 46.71 45.161 46.64 C 44.882 46.392 44.6 46.148 44.31 45.916 C 44.12 45.768 43.934 45.615 43.749 45.46 C 43.718 45.434 43.686 45.408 43.655 45.383 C 43.593 45.33 43.529 45.278 43.467 45.225 C 43.343 45.124 43.221 45.022 43.098 44.92 C 43.038 44.87 42.977 44.82 42.917 44.769 C 42.764 44.642 42.612 44.516 42.459 44.392 C 42.099 44.094 41.743 43.792 41.392 43.482 C 41.251 43.357 41.11 43.236 40.967 43.114 C 40.699 42.886 40.437 42.651 40.182 42.404 C 40.081 42.308 39.98 42.214 39.876 42.124 C 39.689 41.956 39.514 41.776 39.339 41.594 C 39.238 41.487 39.131 41.383 39.027 41.278 C 38.835 41.084 38.665 40.874 38.497 40.654 C 38.448 40.593 38.448 40.593 38.4 40.53 C 37.468 39.332 36.77 37.907 36.269 36.423 C 36.255 36.383 36.243 36.344 36.229 36.302 C 36.002 35.592 35.965 34.834 35.907 34.089 C 35.895 33.923 35.882 33.756 35.868 33.588 C 35.86 33.482 35.852 33.375 35.843 33.267 C 35.839 33.217 35.835 33.169 35.831 33.119 C 35.772 32.319 35.772 32.319 35.963 31.974 Z M 26.019 36.639 C 26.076 36.805 26.042 36.91 25.981 37.071 C 25.877 37.238 25.755 37.392 25.634 37.545 C 25.618 37.567 25.599 37.591 25.582 37.614 C 25.248 38.037 25.248 38.037 25.073 38.196 C 24.886 38.368 24.744 38.584 24.598 38.797 C 24.568 38.84 24.538 38.884 24.506 38.928 C 23.802 39.964 23.446 41.196 23.254 42.47 C 23.248 42.508 23.241 42.548 23.236 42.589 C 23.016 44.028 23.082 45.579 23.241 47.024 C 23.246 47.061 23.249 47.096 23.254 47.135 C 23.298 47.54 23.351 47.946 23.405 48.35 C 23.418 48.437 23.43 48.524 23.44 48.61 C 23.588 49.714 23.741 50.82 23.892 51.924 C 24.966 59.741 24.966 59.741 25.414 63.384 C 25.428 63.493 25.442 63.601 25.456 63.71 C 25.702 65.67 25.702 65.67 25.462 66.342 C 25.45 66.382 25.436 66.421 25.424 66.462 C 25.392 66.556 25.36 66.65 25.328 66.742 C 24.877 66.496 24.594 65.998 24.406 65.49 C 24.24 64.938 24.143 64.376 24.054 63.803 C 24.046 63.756 24.039 63.71 24.032 63.662 C 23.975 63.307 23.922 62.952 23.868 62.596 C 23.862 62.546 23.854 62.496 23.846 62.445 C 23.276 58.618 22.852 54.756 22.18 46.486 C 22.178 46.417 22.178 46.417 22.177 46.348 C 22.132 43.504 22.306 40.18 24.105 37.98 C 24.128 37.993 24.152 38.008 24.175 38.02 C 24.397 37.77 24.613 37.528 24.828 37.287 C 24.804 37.272 24.782 37.26 24.758 37.246 C 24.951 37.085 25.159 36.946 25.366 36.812 C 25.395 36.791 25.424 36.772 25.454 36.752 C 25.642 36.63 25.804 36.618 26.019 36.639 Z M 24.105 37.98 C 24.102 37.98 24.1 37.979 24.1 37.977 C 24.169 37.886 24.24 37.797 24.314 37.71 C 24.256 37.788 24.2 37.866 24.137 37.942 C 24.127 37.954 24.115 37.968 24.105 37.98 Z M 24.324 37.694 C 24.42 37.567 24.527 37.454 24.64 37.35 C 24.525 37.465 24.418 37.584 24.314 37.71 C 24.317 37.704 24.321 37.698 24.324 37.694 Z M 45.215 14.612 C 45.291 14.625 45.367 14.64 45.445 14.655 C 45.131 15.767 44.593 16.809 43.948 17.721 C 43.906 17.782 43.906 17.782 43.862 17.843 C 43.373 18.526 42.839 19.174 42.209 19.695 C 42.143 19.751 42.08 19.806 42.015 19.861 C 41.667 20.153 41.297 20.387 40.915 20.615 C 40.88 20.636 40.845 20.657 40.81 20.677 C 39.843 21.256 38.86 21.793 37.87 22.317 C 35.874 23.35 35.874 23.35 34.119 24.81 C 34.043 24.891 34.043 24.891 33.926 24.993 C 33.319 25.602 32.876 26.533 32.776 27.439 C 32.768 27.613 32.766 27.786 32.763 27.96 C 32.763 28.005 32.761 28.05 32.761 28.096 C 32.755 28.881 32.959 29.62 33.182 30.356 C 33.251 30.585 33.319 30.817 33.386 31.048 C 33.401 31.094 33.414 31.139 33.428 31.187 C 33.549 31.602 33.663 32.019 33.77 32.44 C 33.781 32.487 33.781 32.487 33.793 32.533 C 34.191 34.086 33.971 35.576 33.621 37.113 C 33.595 37.228 33.57 37.344 33.544 37.459 C 33.481 37.459 33.417 37.459 33.352 37.459 C 33.311 37.307 33.307 37.166 33.303 37.009 C 33.303 36.954 33.302 36.898 33.301 36.841 C 33.3 36.812 33.299 36.783 33.299 36.752 C 33.256 34.768 32.829 32.951 32.205 31.102 C 31.621 29.365 31.164 27.473 31.86 25.688 C 32.038 25.264 32.243 24.865 32.507 24.502 C 32.524 24.48 32.539 24.458 32.557 24.433 C 32.569 24.416 32.582 24.397 32.596 24.38 C 32.618 24.392 32.64 24.404 32.661 24.416 C 32.974 24.063 33.278 23.721 33.582 23.379 C 33.559 23.366 33.536 23.353 33.512 23.34 C 33.561 23.295 33.61 23.251 33.659 23.206 C 33.696 23.173 33.733 23.139 33.771 23.103 C 34.842 22.147 36.127 21.49 37.389 20.923 C 37.46 20.891 37.529 20.859 37.597 20.829 C 38.059 20.62 38.521 20.415 38.983 20.211 C 40.415 19.591 40.415 19.591 41.798 18.843 C 41.822 18.83 41.845 18.815 41.869 18.801 C 43.083 18.052 43.986 16.844 44.699 15.533 C 44.772 15.4 44.846 15.267 44.919 15.135 C 44.967 15.049 45.015 14.963 45.063 14.875 C 45.113 14.788 45.163 14.698 45.215 14.612 Z M 54.276 61.56 C 55.089 61.81 55.651 62.974 56.043 63.748 C 56.401 64.474 56.682 65.226 56.925 66.008 C 56.937 66.052 56.951 66.094 56.965 66.139 C 57.341 67.354 57.556 68.581 57.554 69.866 C 57.554 69.906 57.554 69.944 57.554 69.986 C 57.551 70.662 57.507 71.306 57.385 71.968 C 57.376 72.018 57.367 72.068 57.359 72.12 C 57.146 73.3 56.829 74.475 56.349 75.553 C 56.323 75.613 56.323 75.613 56.296 75.673 C 55.947 76.468 55.538 77.196 55.043 77.886 C 55.013 77.928 54.984 77.971 54.953 78.014 C 54.506 78.631 53.996 79.22 53.431 79.7 C 53.379 79.747 53.379 79.747 53.325 79.793 C 52.329 80.679 51.233 81.499 50.129 82.205 C 50.076 82.239 50.076 82.239 50.022 82.274 C 49.505 82.602 48.982 82.896 48.433 83.149 C 48.36 83.182 48.288 83.216 48.215 83.25 C 47.462 83.61 47.462 83.61 47.02 83.544 C 47.055 83.498 47.092 83.458 47.129 83.42 C 47.092 83.461 47.056 83.503 47.02 83.544 C 47.189 83.544 47.354 83.544 47.519 83.544 C 47.519 83.529 47.519 83.515 47.519 83.5 C 47.414 83.486 47.312 83.472 47.211 83.457 C 47.237 83.428 47.263 83.4 47.288 83.371 C 47.266 83.358 47.243 83.345 47.221 83.333 C 47.325 83.244 47.436 83.169 47.558 83.09 C 47.626 83.044 47.696 82.999 47.766 82.953 C 47.8 82.928 47.836 82.905 47.873 82.881 C 48.042 82.767 48.209 82.649 48.378 82.532 C 48.651 82.34 48.927 82.152 49.205 81.97 C 49.99 81.452 50.763 80.916 51.43 80.216 C 51.505 80.139 51.581 80.067 51.66 79.994 C 51.869 79.789 52.041 79.543 52.219 79.305 C 52.298 79.2 52.378 79.094 52.457 78.991 C 52.64 78.754 52.819 78.515 52.994 78.272 C 53.062 78.178 53.13 78.084 53.199 77.99 C 53.668 77.351 54.11 76.686 54.506 75.984 C 54.519 75.961 54.533 75.936 54.547 75.911 C 55.324 74.528 55.817 73.047 56.094 71.445 C 56.104 71.392 56.113 71.34 56.121 71.286 C 56.245 70.544 56.287 69.82 56.283 69.067 C 56.283 69.024 56.283 68.98 56.283 68.936 C 56.282 68.311 56.268 67.701 56.157 67.088 C 56.149 67.045 56.142 67.001 56.134 66.956 C 55.859 65.42 55.323 64.03 54.605 62.691 C 54.435 62.37 54.297 62.031 54.16 61.688 C 54.198 61.647 54.236 61.604 54.276 61.56 Z M 27.746 15.043 C 27.686 15.21 27.592 15.307 27.478 15.432 C 26.689 16.301 26.302 17.809 26.242 19.019 C 26.232 20.73 27.036 22.205 27.79 23.632 C 27.864 23.772 27.938 23.913 28.01 24.053 C 28.268 24.545 28.529 25.034 28.798 25.519 C 29.57 26.929 30.105 28.32 30.103 30.006 C 30.103 30.036 30.103 30.066 30.103 30.096 C 30.099 30.986 29.949 31.821 29.704 32.665 C 29.697 32.694 29.688 32.722 29.68 32.751 C 29.522 33.287 29.274 33.743 28.824 34.014 C 28.596 34.134 28.381 34.181 28.131 34.176 C 28.151 33.543 28.239 32.987 28.452 32.397 C 29.01 30.825 28.822 29.181 28.253 27.655 C 27.979 26.943 27.612 26.287 27.25 25.627 C 27.11 25.372 26.974 25.113 26.837 24.855 C 26.742 24.677 26.647 24.502 26.548 24.326 C 25.884 23.143 25.394 21.945 25.136 20.571 C 25.129 20.537 25.122 20.502 25.114 20.465 C 24.871 19.167 24.938 17.751 25.554 16.6 C 25.932 15.983 26.43 15.616 27.006 15.27 C 27.067 15.233 27.126 15.194 27.186 15.155 C 27.216 15.135 27.246 15.115 27.278 15.095 C 27.304 15.076 27.331 15.057 27.359 15.039 C 27.496 14.972 27.602 15.005 27.746 15.043 Z M 39.303 6.491 C 39.325 6.504 39.35 6.517 39.374 6.529 C 39.773 6.745 40.171 6.962 40.57 7.183 C 40.597 7.198 40.623 7.213 40.651 7.227 C 41.245 7.555 41.245 7.555 41.497 7.738 C 41.535 7.765 41.535 7.765 41.574 7.793 C 41.935 8.055 42.269 8.353 42.585 8.68 C 42.638 8.735 42.691 8.789 42.744 8.842 C 43.007 9.094 43.246 9.37 43.488 9.646 C 43.689 9.875 43.89 10.1 44.107 10.309 C 44.471 10.667 44.809 11.067 45.1 11.502 C 45.123 11.533 45.145 11.566 45.169 11.599 C 45.262 11.738 45.315 11.874 45.351 12.02 C 45.344 12.02 45.337 12.02 45.33 12.02 C 45.33 12.123 45.33 12.223 45.33 12.322 C 45.219 12.281 45.215 12.279 45.08 12.317 C 44.923 12.256 44.783 12.168 44.639 12.02 C 44.622 12.002 44.603 11.984 44.583 11.964 C 44.476 11.854 44.37 11.743 44.263 11.632 C 44.159 11.521 44.054 11.414 43.948 11.308 C 43.843 11.201 43.739 11.095 43.636 10.988 C 43.411 10.751 43.183 10.524 42.943 10.307 C 42.82 10.191 42.702 10.07 42.585 9.947 C 42.401 9.754 42.214 9.571 42.017 9.393 C 41.946 9.33 41.875 9.261 41.805 9.194 C 41.064 8.478 40.195 7.947 39.264 7.615 C 39.238 7.605 39.209 7.595 39.18 7.584 C 38.2 7.237 37.173 7.156 36.155 7.053 C 36.128 7.049 36.102 7.048 36.075 7.045 C 34.653 6.899 33.352 6.999 32.199 8.047 C 32.068 8.172 31.942 8.302 31.816 8.435 C 31.782 8.471 31.747 8.507 31.713 8.544 C 31.497 8.779 31.308 9.025 31.124 9.293 C 30.991 9.488 30.852 9.671 30.704 9.851 C 30.632 9.937 30.566 10.028 30.498 10.119 C 30.382 10.268 30.256 10.401 30.125 10.529 C 30.086 10.567 30.048 10.604 30.01 10.641 C 29.881 10.735 29.816 10.75 29.666 10.723 C 29.456 10.481 29.358 10.059 29.337 9.727 C 29.408 9.175 29.712 8.772 30.011 8.349 C 30.056 8.284 30.056 8.284 30.104 8.217 C 30.186 8.1 30.273 7.986 30.358 7.875 C 30.385 7.889 30.41 7.903 30.433 7.917 C 30.734 7.579 31.026 7.25 31.316 6.923 C 31.3 6.914 31.284 6.905 31.268 6.895 C 32.13 6.122 33.133 5.629 34.313 5.471 C 36.057 5.285 37.726 5.642 39.303 6.491 Z M 45.408 12.409 C 45.331 12.394 45.261 12.375 45.195 12.356 C 45.257 12.372 45.295 12.381 45.408 12.409 C 45.403 12.367 45.4 12.325 45.395 12.285 C 45.4 12.325 45.403 12.365 45.408 12.409 Z M 45.178 57.226 C 45.264 57.341 45.292 57.392 45.292 57.542 C 45.067 58.123 44.553 58.534 44.12 58.912 C 43.929 59.078 43.745 59.254 43.563 59.432 C 43.404 59.585 43.244 59.733 43.08 59.88 C 42.768 60.158 42.461 60.446 42.154 60.732 C 41.934 60.937 41.713 61.14 41.491 61.344 C 41.421 61.409 41.349 61.472 41.28 61.538 C 41.245 61.57 41.209 61.603 41.174 61.636 C 41.105 61.698 41.037 61.76 40.97 61.824 C 40.733 62.042 40.497 62.258 40.259 62.474 C 40.042 62.673 39.826 62.872 39.61 63.071 C 39.342 63.32 39.071 63.566 38.799 63.814 C 38.583 64.011 38.367 64.21 38.151 64.409 C 38.119 64.44 38.087 64.469 38.054 64.498 C 38.005 64.545 38.005 64.545 37.953 64.591 C 37.919 64.623 37.884 64.655 37.849 64.687 C 37.759 64.77 37.67 64.853 37.581 64.936 C 36.997 65.482 36.407 66.016 35.771 66.484 C 35.748 66.499 35.725 66.517 35.701 66.535 C 34.298 67.55 32.686 67.971 31.057 68.239 C 30.974 68.254 30.891 68.268 30.807 68.282 C 29.533 68.494 28.28 68.516 27.016 68.21 C 26.967 68.198 26.916 68.187 26.866 68.175 C 26.737 68.144 26.608 68.113 26.48 68.082 C 26.48 68.01 26.48 67.938 26.48 67.866 C 26.581 67.809 26.656 67.816 26.77 67.816 C 26.834 67.816 26.834 67.816 26.902 67.816 C 26.974 67.816 26.974 67.816 27.045 67.816 C 27.094 67.816 27.144 67.816 27.193 67.816 C 27.478 67.818 27.761 67.827 28.044 67.844 C 31.056 68.02 33.867 67.147 36.142 64.864 C 36.394 64.608 36.636 64.346 36.874 64.075 C 36.973 63.964 37.077 63.86 37.184 63.758 C 37.268 63.676 37.35 63.591 37.432 63.506 C 37.632 63.296 37.837 63.099 38.049 62.906 C 38.15 62.812 38.247 62.717 38.343 62.618 C 38.506 62.451 38.673 62.292 38.846 62.136 C 38.965 62.027 39.081 61.914 39.199 61.803 C 39.369 61.638 39.543 61.482 39.72 61.328 C 39.941 61.134 40.152 60.933 40.362 60.725 C 40.533 60.556 40.71 60.392 40.887 60.23 C 41.161 59.98 41.428 59.72 41.696 59.46 C 41.91 59.254 42.126 59.05 42.345 58.85 C 42.439 58.762 42.532 58.674 42.625 58.584 C 42.919 58.301 43.223 58.035 43.533 57.774 C 43.589 57.726 43.644 57.68 43.699 57.632 C 44.051 57.342 44.759 56.962 45.178 57.226 Z M 24.175 3.641 C 24.123 3.801 24.059 3.938 23.976 4.082 C 23.735 4.515 23.511 4.961 23.284 5.407 C 23.224 5.524 23.164 5.641 23.104 5.758 C 22.364 7.205 21.994 8.824 22.372 10.471 C 22.569 11.259 22.937 11.963 23.433 12.559 C 23.507 12.647 23.579 12.739 23.649 12.832 C 23.794 13.018 23.944 13.198 24.097 13.378 C 24.651 14.037 24.651 14.037 24.828 14.309 C 24.791 14.434 24.764 14.475 24.658 14.536 C 23.974 14.697 23.293 14.324 22.721 13.931 C 22.09 13.453 21.675 12.839 21.373 12.063 C 21.362 12.036 21.351 12.009 21.34 11.981 C 20.995 11.076 20.86 10.08 20.863 9.101 C 20.863 9.001 20.861 8.904 20.86 8.805 C 20.854 7.25 21.413 5.789 22.372 4.678 C 22.389 4.658 22.408 4.638 22.426 4.617 C 22.356 4.701 22.26 4.823 22.103 5.024 C 22.128 5.038 22.155 5.052 22.18 5.066 C 22.388 4.831 22.592 4.603 22.794 4.374 C 22.767 4.361 22.742 4.345 22.717 4.332 C 22.702 4.345 22.686 4.357 22.673 4.37 C 23.103 3.968 23.634 3.623 24.175 3.641 Z M 29.539 0 C 29.582 0 29.626 0 29.671 0 C 30.026 0.006 30.358 0.043 30.703 0.143 C 30.748 0.156 30.748 0.156 30.793 0.168 C 32.109 0.56 33.426 1.306 34.155 2.655 C 34.31 2.961 34.465 3.329 34.465 3.684 C 34.357 3.722 34.274 3.747 34.168 3.695 C 34.092 3.641 34.018 3.584 33.945 3.525 C 33.887 3.481 33.829 3.437 33.771 3.393 C 33.74 3.37 33.709 3.347 33.678 3.323 C 32.307 2.314 30.561 1.497 28.898 1.869 C 28.735 1.925 28.588 2.001 28.438 2.085 C 28.41 2.101 28.384 2.116 28.356 2.132 C 27.2 2.783 26.165 3.568 25.58 4.909 C 25.518 5.026 25.472 5.088 25.366 5.153 C 25.25 5.11 25.25 5.11 25.203 5.037 C 25.128 4.773 25.273 4.457 25.35 4.207 C 25.377 4.115 25.405 4.022 25.434 3.929 C 25.456 3.857 25.456 3.857 25.478 3.785 C 25.518 3.646 25.558 3.507 25.596 3.368 C 25.815 2.583 26.063 1.927 26.595 1.352 C 26.626 1.318 26.656 1.282 26.688 1.248 C 27.458 0.423 28.482 -0.007 29.539 0 Z M 47.711 16.21 C 48.435 16.602 48.93 17.395 49.193 18.232 C 49.538 19.393 49.624 20.724 49.323 21.911 C 49.31 21.965 49.297 22.018 49.283 22.075 C 49.087 22.808 48.765 23.497 48.363 24.114 C 48.348 24.137 48.332 24.161 48.316 24.186 C 48.101 24.515 47.867 24.826 47.629 25.136 C 47.506 25.297 47.384 25.462 47.265 25.628 C 47.197 25.722 47.129 25.814 47.059 25.91 C 46.094 27.225 45.304 28.429 45.408 30.204 C 45.479 30.919 45.788 31.546 46.085 32.172 C 46.412 32.868 46.694 33.598 46.903 34.35 C 46.914 34.384 46.925 34.418 46.935 34.452 C 47.108 35.144 46.959 35.877 46.673 36.496 C 46.566 36.696 46.437 36.863 46.29 37.027 C 46.239 36.999 46.189 36.97 46.137 36.94 C 46.157 36.682 46.196 36.436 46.247 36.182 C 46.402 35.395 46.459 34.644 46.213 33.874 C 46.191 33.808 46.191 33.808 46.17 33.741 C 46.032 33.338 45.834 32.971 45.634 32.604 C 44.953 31.355 44.44 30.14 44.734 28.645 C 45 27.418 45.668 26.415 46.367 25.452 C 46.405 25.4 46.405 25.4 46.446 25.345 C 46.553 25.197 46.659 25.049 46.768 24.901 C 47.071 24.486 47.367 24.067 47.653 23.638 C 47.689 23.583 47.727 23.529 47.763 23.474 C 48.609 22.228 49.034 20.627 48.861 19.059 C 48.749 18.177 48.411 17.394 47.917 16.7 C 47.711 16.409 47.711 16.409 47.711 16.21 Z M 28.553 70.499 C 28.268 71.954 27.426 73.322 26.655 74.503 C 26.478 74.772 26.323 75.049 26.176 75.341 C 26.132 75.428 26.086 75.514 26.041 75.601 C 25.499 76.644 25.157 77.785 24.944 78.966 C 24.935 79.016 24.924 79.066 24.914 79.119 C 24.817 79.737 24.826 80.419 24.897 81.042 C 24.908 81.156 24.908 81.271 24.908 81.387 C 24.908 81.427 24.906 81.468 24.906 81.51 C 24.906 81.54 24.906 81.57 24.906 81.599 C 24.571 81.244 24.399 80.85 24.234 80.374 C 24.212 80.312 24.189 80.25 24.167 80.188 C 23.706 78.882 23.422 77.602 23.907 76.244 C 24.239 75.384 24.731 74.665 25.302 73.989 C 25.373 73.904 25.443 73.818 25.514 73.734 C 25.565 73.673 25.615 73.612 25.665 73.551 C 25.689 73.522 25.713 73.494 25.737 73.464 C 25.933 73.229 26.13 72.995 26.348 72.785 C 26.566 72.574 26.767 72.343 26.97 72.115 C 27.038 72.035 27.108 71.957 27.178 71.881 C 27.382 71.65 27.584 71.419 27.771 71.172 C 27.828 71.098 27.887 71.03 27.948 70.964 C 27.945 70.968 27.941 70.97 27.939 70.974 C 27.964 70.99 27.99 71.004 28.016 71.019 C 28.171 70.842 28.324 70.67 28.475 70.499 C 28.436 70.486 28.399 70.47 28.361 70.457 C 28.423 70.47 28.488 70.486 28.553 70.499 Z M 27.948 70.964 C 28.083 70.797 28.221 70.629 28.361 70.457 C 28.238 70.621 28.114 70.779 27.979 70.929 C 27.969 70.941 27.958 70.952 27.948 70.964 Z M 41.798 13.359 C 41.861 13.387 41.925 13.416 41.99 13.445 C 41.539 14.841 39.783 15.955 38.687 16.597 C 38.641 16.625 38.641 16.625 38.593 16.654 C 37.607 17.239 36.573 17.646 35.516 18.033 C 34.145 18.535 32.815 19.025 31.7 20.097 C 31.67 20.125 31.64 20.153 31.61 20.181 C 31.136 20.634 30.707 21.268 30.459 21.91 C 30.396 21.996 30.396 21.996 30.254 22.031 C 30.212 22.034 30.17 22.037 30.127 22.039 C 30.073 21.119 30.379 20.252 30.919 19.559 C 30.949 19.522 30.979 19.485 31.01 19.449 C 31.041 19.41 31.074 19.369 31.106 19.329 C 32.314 17.904 34.166 17.318 35.808 16.857 C 38.317 16.169 38.317 16.169 40.493 14.655 C 40.533 14.616 40.575 14.576 40.615 14.537 C 40.844 14.324 41.067 14.105 41.288 13.88 C 41.397 13.77 41.507 13.661 41.617 13.554 C 41.681 13.49 41.74 13.426 41.798 13.359 Z M 46.29 15.432 C 46.357 15.435 46.357 15.435 46.443 15.475 C 46.613 15.738 46.643 16.005 46.681 16.323 C 46.687 16.37 46.694 16.418 46.7 16.467 C 46.98 18.63 46.615 20.737 45.46 22.515 C 44.742 23.652 44.596 25.117 44.543 26.473 C 44.523 26.942 44.506 27.331 44.217 27.697 C 44.04 27.871 43.831 27.924 43.603 27.913 C 43.239 27.856 42.881 27.707 42.618 27.412 C 42.57 27.318 42.542 27.243 42.527 27.137 C 42.713 27.048 42.869 27.035 43.065 27.093 C 43.146 27.134 43.221 27.18 43.297 27.226 C 43.411 27.287 43.515 27.307 43.641 27.309 C 43.743 27.246 43.756 27.181 43.795 27.058 C 43.853 26.817 43.862 26.569 43.877 26.321 C 43.882 26.267 43.885 26.213 43.89 26.157 C 43.903 25.984 43.915 25.812 43.927 25.639 C 44.073 23.527 44.073 23.527 44.331 22.904 C 44.348 22.865 44.348 22.865 44.364 22.827 C 44.447 22.629 44.534 22.433 44.622 22.237 C 44.649 22.176 44.677 22.115 44.704 22.054 C 44.861 21.704 45.024 21.357 45.194 21.015 C 45.471 20.449 45.716 19.877 45.885 19.257 C 45.894 19.224 45.903 19.191 45.912 19.157 C 46.038 18.66 46.072 18.155 46.094 17.642 C 46.101 17.472 46.109 17.301 46.117 17.132 C 46.118 17.097 46.121 17.063 46.122 17.028 C 46.137 16.703 46.155 16.38 46.175 16.055 C 46.177 16.007 46.18 15.959 46.183 15.909 C 46.186 15.865 46.189 15.82 46.191 15.775 C 46.194 15.737 46.196 15.698 46.199 15.659 C 46.213 15.561 46.213 15.561 46.29 15.432 Z M 47.095 11.546 C 48.125 11.699 49.2 12.342 49.976 13.1 C 50.007 13.129 50.038 13.16 50.069 13.192 C 50.168 13.289 50.263 13.388 50.359 13.489 C 50.394 13.523 50.428 13.559 50.463 13.595 C 51.523 14.739 52.154 16.406 52.206 18.049 C 52.217 18.75 52.138 19.423 51.972 20.097 C 51.965 20.126 51.958 20.154 51.951 20.183 C 51.709 21.168 51.24 22.095 50.769 22.959 C 50.632 23.212 50.502 23.468 50.367 23.722 C 50.349 23.76 50.329 23.797 50.309 23.835 C 50.291 23.869 50.275 23.901 50.257 23.935 C 50.206 24.028 50.15 24.114 50.091 24.2 C 50.028 24.171 49.964 24.143 49.899 24.114 C 49.947 23.943 50.002 23.784 50.069 23.623 C 50.586 22.402 51.001 21.173 51.203 19.838 C 51.214 19.782 51.222 19.727 51.231 19.67 C 51.46 17.922 51.244 16.011 50.299 14.563 C 49.439 13.294 48.245 12.581 47.02 11.847 C 47.054 11.593 47.054 11.593 47.095 11.546 Z M 33.659 27.913 C 33.779 27.935 33.858 27.985 33.955 28.066 C 33.983 28.089 34.011 28.111 34.04 28.135 C 34.081 28.171 34.081 28.171 34.127 28.207 C 34.19 28.26 34.252 28.312 34.315 28.363 C 34.346 28.39 34.378 28.416 34.411 28.443 C 34.548 28.556 34.688 28.665 34.828 28.775 C 35.153 29.033 35.474 29.298 35.793 29.565 C 37.163 30.925 37.163 30.925 38.78 31.571 C 39.013 31.484 39.169 31.349 39.342 31.154 C 39.364 31.13 39.385 31.104 39.407 31.077 C 39.555 30.901 39.67 30.707 39.785 30.504 C 39.88 30.334 39.969 30.182 40.071 30.052 C 40.05 30.081 40.024 30.118 39.993 30.16 C 40.02 30.175 40.045 30.189 40.071 30.204 C 40.175 30.085 40.275 29.972 40.377 29.858 C 40.354 29.845 40.331 29.831 40.308 29.819 C 40.41 29.744 40.529 29.686 40.673 29.648 C 40.771 29.625 40.871 29.607 40.971 29.589 C 41.109 29.556 41.215 29.503 41.338 29.426 C 41.182 29.175 41.012 28.967 40.81 28.765 C 40.759 28.714 40.708 28.661 40.657 28.609 C 40.634 28.586 40.612 28.564 40.589 28.539 C 40.481 28.421 40.455 28.359 40.45 28.187 C 40.451 28.14 40.454 28.091 40.455 28.044 C 40.678 27.995 40.833 27.988 41.029 28.129 C 41.129 28.217 41.224 28.306 41.322 28.395 C 41.515 28.564 41.697 28.629 41.943 28.621 C 42.083 28.595 42.179 28.52 42.297 28.433 C 42.323 28.433 42.348 28.433 42.373 28.433 C 42.425 28.745 42.425 28.745 42.368 28.887 C 42.291 29.004 42.209 29.08 42.108 29.169 C 41.918 29.355 41.86 29.512 41.795 29.78 C 41.735 29.989 41.631 30.138 41.461 30.247 C 41.283 30.332 41.097 30.36 40.908 30.388 C 40.645 30.463 40.493 30.616 40.339 30.859 C 40.306 30.91 40.273 30.96 40.24 31.01 C 40.223 31.034 40.208 31.059 40.191 31.083 C 40.091 31.239 39.985 31.391 39.879 31.542 C 39.848 31.587 39.848 31.587 39.817 31.631 C 39.594 31.944 39.278 32.213 38.918 32.277 C 37.616 32.4 36.124 31.005 35.175 30.116 C 35.027 29.975 34.882 29.831 34.74 29.682 C 34.665 29.607 34.59 29.534 34.513 29.462 C 33.681 28.637 33.681 28.637 33.544 28.129 C 33.571 28.038 33.598 27.983 33.659 27.913 Z M 46.443 58.147 C 46.717 58.202 46.947 58.294 47.186 58.446 C 47.835 58.859 48.495 58.913 49.208 58.709 C 49.373 58.656 49.538 58.6 49.702 58.543 C 50.461 58.275 51.155 58.257 51.896 58.623 C 52.526 58.994 52.96 59.561 53.209 60.308 C 53.24 60.442 53.246 60.558 53.239 60.696 C 53.013 60.813 52.793 60.808 52.547 60.782 C 52.345 60.684 52.241 60.508 52.112 60.314 C 51.792 59.838 51.353 59.58 50.833 59.498 C 50.358 59.456 49.887 59.55 49.42 59.642 C 49.021 59.719 48.626 59.736 48.226 59.65 C 48.185 59.642 48.185 59.642 48.144 59.633 C 47.894 59.577 47.668 59.486 47.442 59.356 C 47.405 59.336 47.367 59.316 47.329 59.294 C 47.097 59.154 46.903 58.99 46.71 58.793 C 46.678 58.761 46.678 58.761 46.646 58.728 C 46.517 58.59 46.437 58.462 46.367 58.277 C 46.391 58.235 46.418 58.192 46.443 58.147 Z M 38.093 11.223 C 38.164 11.287 38.235 11.351 38.305 11.415 C 38.16 11.476 38.071 11.439 37.928 11.383 C 36.662 10.924 35.009 10.849 33.807 11.536 C 33.567 11.679 33.344 11.844 33.122 12.02 C 32.217 12.711 32.217 12.711 32.047 12.711 C 32.244 12.087 32.635 11.539 33.103 11.107 C 32.933 11.286 32.777 11.475 32.624 11.675 C 32.649 11.689 32.673 11.704 32.699 11.718 C 32.921 11.467 33.137 11.226 33.352 10.984 C 33.33 10.971 33.309 10.959 33.288 10.948 C 33.511 10.763 33.746 10.605 33.983 10.475 C 35.377 9.796 36.927 10.203 38.093 11.223 Z M 41.261 22.386 C 41.329 22.483 41.379 22.586 41.435 22.693 C 41.711 23.056 42.168 23.255 42.539 23.469 C 42.773 23.61 43.007 23.754 43.18 23.984 C 43.192 24.154 43.155 24.221 43.072 24.361 C 42.947 24.505 42.872 24.544 42.691 24.552 C 42.204 24.473 41.73 24.098 41.426 23.678 C 41.212 23.319 41.11 22.88 40.992 22.471 C 41.107 22.386 41.107 22.386 41.261 22.386 Z M 43.915 20.117 C 44.137 20.32 44.279 20.555 44.331 20.874 C 44.335 20.972 44.335 21.069 44.335 21.166 C 44.334 21.216 44.334 21.267 44.333 21.319 C 44.333 21.357 44.333 21.396 44.331 21.435 C 44.293 21.399 44.255 21.363 44.217 21.325 C 44.192 21.301 44.167 21.278 44.142 21.253 C 44.091 21.203 44.041 21.153 43.993 21.101 C 43.68 20.77 43.312 20.605 42.9 20.483 C 42.796 20.442 42.75 20.407 42.681 20.313 C 42.731 20.187 42.773 20.092 42.873 20.01 C 43.239 19.876 43.589 19.865 43.915 20.117 Z M 14.714 82.383 C 14.725 82.39 14.734 82.399 14.743 82.407 C 14.761 82.422 14.778 82.438 14.795 82.452 C 14.768 82.43 14.74 82.407 14.714 82.383 Z M 15.662 83.122 C 15.648 83.114 15.637 83.104 15.624 83.094 C 15.637 83.104 15.648 83.114 15.662 83.122 Z M 15.207 82.777 C 15.209 82.778 15.211 82.779 15.215 82.781 C 15.259 82.815 15.302 82.849 15.345 82.883 C 15.345 82.883 15.345 82.884 15.345 82.884 C 15.299 82.848 15.254 82.812 15.207 82.777 Z M 15.207 82.777 C 15.107 82.726 15.02 82.65 14.913 82.556 C 14.887 82.532 14.86 82.508 14.831 82.484 C 14.82 82.474 14.808 82.462 14.795 82.452 C 14.806 82.462 14.816 82.469 14.828 82.479 C 14.85 82.496 14.872 82.513 14.894 82.53 C 14.998 82.613 15.103 82.696 15.207 82.777 Z M 16.14 83.365 C 15.995 83.26 15.871 83.167 15.751 83.075 C 15.758 83.072 15.763 83.071 15.769 83.068 C 15.766 83.066 15.764 83.064 15.763 83.06 C 15.9 83.178 16.016 83.271 16.14 83.365 Z M 15.477 82.85 C 15.484 82.851 15.491 82.851 15.499 82.853 C 15.499 82.846 15.499 82.84 15.499 82.834 C 15.517 82.849 15.533 82.862 15.548 82.877 C 15.534 82.874 15.517 82.87 15.496 82.868 C 15.49 82.862 15.484 82.856 15.477 82.85 Z M 11.478 21.355 C 11.39 21.449 11.302 21.543 11.212 21.633 C 11.3 21.541 11.384 21.446 11.469 21.349 C 11.472 21.351 11.474 21.353 11.478 21.355 Z M 10.983 21.86 C 10.851 21.995 10.725 22.137 10.598 22.277 C 10.724 22.136 10.851 21.995 10.983 21.86 Z M 32.521 59.621 C 32.455 59.708 32.388 59.793 32.322 59.879 C 32.32 59.877 32.317 59.876 32.314 59.875 C 32.382 59.788 32.45 59.704 32.521 59.621 Z M 33.506 23.336 C 33.508 23.337 33.51 23.339 33.512 23.34 C 33.176 23.657 32.879 23.995 32.596 24.38 C 32.591 24.377 32.588 24.375 32.583 24.373 C 32.879 24.01 33.171 23.655 33.506 23.336 Z M 31.24 6.879 C 31.249 6.886 31.258 6.89 31.268 6.895 C 30.945 7.183 30.644 7.512 30.358 7.875 C 30.358 7.875 30.358 7.874 30.357 7.874 C 30.635 7.521 30.926 7.194 31.24 6.879 Z M 99.923 99.179 C 99.949 99.192 99.974 99.207 100 99.221 C 99.772 99.479 99.543 99.735 99.309 100 C 99.309 99.817 99.402 99.739 99.507 99.613 C 99.536 99.579 99.536 99.579 99.565 99.545 C 99.677 99.409 99.792 99.291 99.923 99.179 Z M 33.288 10.948 C 33.225 10.999 33.163 11.053 33.103 11.107 C 33.159 11.051 33.215 10.995 33.275 10.94 C 33.279 10.943 33.284 10.945 33.288 10.948 Z M 24.758 37.246 C 24.719 37.281 24.678 37.316 24.64 37.35 C 24.677 37.315 24.714 37.278 24.752 37.243 C 24.753 37.244 24.757 37.245 24.758 37.246 Z M 22.673 4.37 C 22.586 4.451 22.504 4.534 22.426 4.617 C 22.521 4.504 22.573 4.456 22.673 4.37 Z M 16.846 83.86 C 16.667 83.737 16.512 83.63 16.377 83.533 C 16.44 83.559 16.496 83.592 16.558 83.641 C 16.596 83.67 16.596 83.67 16.635 83.698 C 16.661 83.719 16.686 83.738 16.714 83.76 C 16.758 83.793 16.802 83.826 16.846 83.86 Z M 51.372 86.292 C 51.419 86.284 51.466 86.273 51.512 86.258 C 51.446 86.289 51.41 86.298 51.372 86.292 Z M 15.345 82.884 C 15.438 82.955 15.53 83.025 15.624 83.094 C 15.61 83.088 15.595 83.081 15.574 83.07 C 15.548 83.05 15.52 83.029 15.492 83.009 C 15.465 82.988 15.438 82.968 15.408 82.949 C 15.388 82.931 15.367 82.914 15.345 82.896 C 15.345 82.892 15.345 82.888 15.345 82.884 Z M 15.763 83.06 C 15.698 83.006 15.628 82.946 15.548 82.877 C 15.61 82.893 15.639 82.918 15.708 82.984 C 15.736 83.023 15.737 83.026 15.763 83.06 Z M 15.496 82.868 C 15.582 82.94 15.666 83.006 15.751 83.075 C 15.681 83.101 15.659 83.108 15.624 83.094 C 15.53 83.025 15.438 82.954 15.345 82.883 C 15.345 82.872 15.345 82.862 15.345 82.853 C 15.411 82.857 15.46 82.862 15.496 82.868 Z M 47.221 83.333 C 47.19 83.36 47.16 83.389 47.129 83.42 C 47.155 83.389 47.184 83.359 47.211 83.328 C 47.215 83.33 47.218 83.332 47.221 83.333 Z M 40.308 29.819 C 40.219 29.884 40.141 29.963 40.071 30.052 C 40.175 29.909 40.193 29.895 40.301 29.815 C 40.303 29.815 40.306 29.817 40.308 29.819 Z M 45.062 12.322 C 45.122 12.337 45.161 12.347 45.195 12.356 C 45.156 12.344 45.117 12.331 45.08 12.317 C 45.075 12.319 45.068 12.322 45.062 12.322 Z M 45.369 12.02 C 45.363 12.02 45.357 12.02 45.351 12.02 C 45.371 12.103 45.383 12.192 45.395 12.285 C 45.386 12.196 45.378 12.108 45.369 12.02 Z" style="fill: rgb(244, 244, 244);"/>
</svg>